# xmcd
#
# Track frame offsets: 
#        150
#        15935
#        29058
#        46124
#        64004
#        82186
#        93739
#        111014
#        123360
#        141958
#        156386
#
# Disc length: 2270 seconds
#
# Revision: 1
# Processed by: cddbd v1.5.2PL0 Copyright (c) Steve Scherf et al.
# Submitted via: ExactAudioCopy v0.90b4
#
DISCID=9208dc0b
DTITLE=Various Artist - Nashville Star 2005 Finalists
DYEAR=1900
DGENRE=
TTITLE0=Jenny Farrell - Seven Year Ache
TTITLE1=Justin David - Ring Of Fire
TTITLE2=Casey Simpson - Somebody Like You
TTITLE3=Christy McDonald - Long Black Train
TTITLE4=Erika Jo Heriges - Break Down Here
TTITLE5=Jody Evans - Three Nickels And A Dime
TTITLE6=Tamika Tyler - You Don't Even Know Who I Am
TTITLE7=Jason Meadows - Workin' Man Blues
TTITLE8=Jayron Weaver - I'm Already There
TTITLE9=Josh Owen - Are You Sure Hank Done It This Way
TTITLE10=George Canyon - Who Would You Be
EXTD=
EXTT0=
EXTT1=
EXTT2=
EXTT3=
EXTT4=
EXTT5=
EXTT6=
EXTT7=
EXTT8=
EXTT9=
EXTT10=
PLAYORDER=
